<?xml version="1.0" encoding="utf-8"?>
<!-- Generator: Adobe Illustrator 22.1.0, SVG Export Plug-In . SVG Version: 6.00 Build 0)  -->
<svg version="1.1" id="Слой_1" xmlns="http://www.w3.org/2000/svg" xmlns:xlink="http://www.w3.org/1999/xlink" x="0px" y="0px"
	 viewBox="0 0 564 132.8" style="enable-background:new 0 0 564 132.8;" xml:space="preserve">
<style type="text/css">
	.st0{fill:#008942;}
</style>
<g>
	<g>
		<g>
			<path class="st0" d="M34.9,31.7h41.6v9.7H46.5v38.9H34.9V31.7z M85.1,80.3h49.6v-9.2h-38V60h36.8v-8.5H96.7V40.9h38v-9.2H85.1
				V80.3z M182.4,70.6L182.4,70.6l-16.1-38.9h-20v48.6h11.6V41.6l16.6,38.7h15.9l16.6-38.7v38.7h11.6V31.7h-20L182.4,70.6z
				 M284,48.5v15.3c0,12.1-4,16.6-17.6,16.6H245c-13,0-17.9-4.8-17.9-16.6V48.5c0-13.3,4.7-17.3,17.9-17.3h21.4
				C278.4,31.2,284,34.8,284,48.5z M272.3,49.5c0-7.1-2.4-8.7-9.3-8.7h-15c-7.3,0-9.3,1.8-9.3,8.7v13c0,6.4,2.1,8.1,9.1,8.1h15.4
				c7.4,0,9.1-1.6,9.1-8.2V49.5z M289.7,41.4H310v38.9h11.6V41.4h20.5v-9.7h-52.4V41.4z M350.8,80.3h49.6v-9.2h-38V60h36.8v-8.5
				h-36.8V40.9h38v-9.2h-49.6V80.3z M447.8,70.6h-14.9c-6.7,0-9.4-1.4-9.4-8.8v-12c0-7.6,1.6-9,9.4-9h14.9c6.7,0,9.3,2.2,9.3,7.3
				h11.6c0-13.7-7.2-16.9-18.7-16.9h-19.3c-14.3,0-18.8,4-18.8,18.2v13.8c0,13,4.3,17.2,17.7,17.2h21.6c14.3,0,17.5-3.9,17.6-16.8
				h-11.7C457.1,69.4,454.7,70.6,447.8,70.6z M474.5,31.7v9.7h20.3v38.9h11.6V41.4h20.5v-9.7H474.5z"/>
			<path class="st0" d="M50.8,91.7H57v13.9h-3.3V94.4h-0.4l-4.8,11.1h-4.7L39,94.4h-0.4v11.1h-3.3V91.7h6.2l4.6,11.1h0.2L50.8,91.7z
				 M63.3,105.6h14.2v-2.6H66.6v-3.2h10.5v-2.4H66.6v-3h10.9v-2.6H63.3V105.6z M99.4,102.8h1.5v6.1h-3v-3.3H86v3.3h-3v-6.1h0.9
				c1.2-1.2,1.7-2.5,1.7-4.5v-6.6h13.9V102.8z M96.1,94.4h-7.4V99c0,1.5-0.3,2.7-1.1,3.8h8.5V94.4z M110.4,102.8H110V91.7h-3.3v13.9
				h5.7l8.3-11.1h0.5v11.1h3.3V91.7h-5.6L110.4,102.8z M145.7,91.7h-3.3v11.1h-8.6V91.7h-3.3v13.9h13.7v3.3h3v-6.1h-1.6V91.7z
				 M157.2,102.8h-0.5V91.7h-3.3v13.9h5.7l8.3-11.1h0.5v11.1h3.3V91.7h-5.6L157.2,102.8z M189.1,97h-8.6v-5.3h-3.3v13.9h3.3v-5.8
				h8.6v5.8h3.3V91.7h-3.3V97z M208.5,102.8h-4.3c-1.9,0-2.7-0.4-2.7-2.5v-3.4c0-2.2,0.5-2.6,2.7-2.6h4.3c1.9,0,2.7,0.6,2.7,2.1h3.3
				c0-3.9-2.1-4.8-5.3-4.8h-5.5c-4.1,0-5.4,1.1-5.4,5.2v3.9c0,3.7,1.2,4.9,5.1,4.9h6.2c4.1,0,5-1.1,5-4.8h-3.3
				C211.1,102.4,210.4,102.8,208.5,102.8z M236.7,91.7h-5l-6.1,5.2h-2v-5.2h-3.3v13.9h3.3v-5.9h2l6.4,5.9h4.9l-8.5-7.4L236.7,91.7z
				 M253.5,91.7l7.3,13.9h-3.9l-1.8-3.5h-8.2l-1.8,3.5h-3.9l7.3-13.9H253.5z M253.8,99.4l-2.6-5.2H251l-2.7,5.2H253.8z M270.9,91.7
				h10.5v13.9h-3.3v-4.4h-5.5l-3.3,4.4h-4.3l4.1-4.8c-1.6-0.4-3.1-2-3.1-4.2C265.9,92.6,268,91.7,270.9,91.7z M271.1,94.3
				c-1.5,0-1.9,0.7-1.9,2.1c0,1.5,0.6,2.1,2,2.1h6.8v-4.2H271.1z M299.1,100.1c0,2-0.3,2.7-2,2.7v2.8h1.4c2.5,0,3.9-1.5,3.9-5v-6.1
				h7.8v11.1h3.3V91.7h-14.4V100.1z M330.7,91.7l7.3,13.9h-3.9l-1.8-3.5h-8.2l-1.8,3.5h-3.9l7.4-13.9H330.7z M331,99.4l-2.6-5.2
				h-0.2l-2.7,5.2H331z M357.3,101.2c0,3.5-1.6,4.3-4.9,4.3H343V91.7h13v2.6h-9.7v2.6h6.1C355.6,96.9,357.3,97.7,357.3,101.2z
				 M354,101.2c0-1.1-0.2-1.6-1.9-1.6h-5.9v3.2h5.7C353.8,102.8,354,102.4,354,101.2z M379.6,96.5v4.4c0,3.5-1.1,4.7-5,4.7h-6.1
				c-3.7,0-5.1-1.4-5.1-4.7v-4.4c0-3.8,1.3-4.9,5.1-4.9h6.1C378,91.5,379.6,92.6,379.6,96.5z M376.3,96.8c0-2-0.7-2.5-2.7-2.5h-4.3
				c-2.1,0-2.7,0.5-2.7,2.5v3.7c0,1.8,0.6,2.3,2.6,2.3h4.4c2.1,0,2.6-0.5,2.6-2.3V96.8z M399.8,96.5c0,3.5-1.4,4.9-4.8,4.9h-6.2v4.1
				h-3.3V91.7h9.4C398.4,91.7,399.8,93,399.8,96.5z M396.5,96.5c0-1.4-0.4-2.1-2.2-2.1h-5.5v4.3h5.5C396,98.7,396.5,98,396.5,96.5z
				 M415.5,91.7l7.3,13.9h-3.9l-1.8-3.5h-8.2l-1.8,3.5h-3.9l7.4-13.9H415.5z M415.8,99.4l-2.6-5.2H413l-2.7,5.2H415.8z M425.7,94.4
				h5.8v11.1h3.3V94.4h5.8v-2.8h-15V94.4z M462.1,96.5v4.4c0,3.5-1.1,4.7-5,4.7h-6.1c-3.7,0-5.1-1.4-5.1-4.7v-4.4
				c0-3.8,1.3-4.9,5.1-4.9h6.1C460.5,91.5,462.1,92.6,462.1,96.5z M458.7,96.8c0-2-0.7-2.5-2.7-2.5h-4.3c-2.1,0-2.7,0.5-2.7,2.5v3.7
				c0,1.8,0.6,2.3,2.6,2.3h4.4c2.1,0,2.6-0.5,2.6-2.3V96.8z M482.2,96.5c0,3.5-1.4,4.9-4.8,4.9h-6.2v4.1h-3.3V91.7h9.5
				C480.8,91.7,482.2,93,482.2,96.5z M478.9,96.5c0-1.4-0.4-2.1-2.2-2.1h-5.5v4.3h5.5C478.4,98.7,478.9,98,478.9,96.5z M491.6,102.8
				h-0.5V91.7h-3.3v13.9h5.7l8.3-11.1h0.5v11.1h3.3V91.7h-5.6L491.6,102.8z M527.6,91.7v13.9h-3.3v-4.4h-5.5l-3.3,4.4h-4.3l4.1-4.8
				c-1.6-0.4-3.1-2-3.1-4.2c0-3.9,2.1-4.9,4.9-4.9H527.6z M524.3,94.3h-6.9c-1.5,0-1.9,0.7-1.9,2.1c0,1.5,0.6,2.1,2,2.1h6.8V94.3z"
				/>
		</g>
	</g>
</g>
</svg>
